<svg width="180" height="180" viewBox="0 0 180 180" fill="none" xmlns="http://www.w3.org/2000/svg">
  <defs>
    <linearGradient id="edcFav" x1="0%" y1="0%" x2="100%" y2="100%">
      <stop offset="0%" stop-color="#7AA0F5"/>
      <stop offset="50%" stop-color="#5B8DEF"/>
      <stop offset="100%" stop-color="#3E6FD9"/>
    </linearGradient>
  </defs>
  <rect width="180" height="180" rx="40" fill="#16181C"/>
  <g transform="translate(29.4,30.7) scale(0.88)" fill="url(#edcFav)" fill-rule="evenodd" clip-rule="evenodd">
    <path d="M40.595,105.669c-8.677-13.724-16.314-29.262-21.72-47.64C16.31,49.312,13.962,40,13.115,29.11c-0.969-12.44,0.386-26.477,10.559-28.92c3.232-0.776,7.688,1,10.08,2.28c7.774,4.161,13.416,10.982,18.96,18.12c2.741,3.529,5.02,7.154,7.2,11.4c2.485,4.842,4.94,10.979,4.08,17.76c-0.312,2.453-1.489,4.95-2.521,7.44C54.795,73.326,47.35,89.827,40.595,105.669z"/>
    <path d="M47.434,108.669c5.987-13.801,11.193-27.285,17.4-40.92c1.929-4.237,3.477-9.505,6-13.32c6.917-10.458,24.385-14.367,41.04-15.12c10.341-0.468,25.571,1.158,25.92,11.76c0.169,5.148-3.074,9.834-5.641,12.96c-8.271,10.074-19.558,17.917-31.199,24.24C84.506,97.203,67.304,104.102,47.434,108.669z"/>
    <path d="M17.075,75.669c5.155,12.605,11.332,24.187,18.119,35.16c-12.604,1.567-32.716,2.03-35.039-9.36c-0.56-2.747,0.491-6.64,1.68-9.12c1.536-3.207,4.096-6.138,6.6-9c2.44-2.79,5.543-5.281,8.16-7.44C16.731,75.797,16.807,75.681,17.075,75.669z"/>
    <path d="M85.715,103.629c0.097,0.023,0.119,0.121,0.24,0.12c0.92,9.873,0.559,20.411-3.601,26.64c-4.016,6.015-11.721,5.081-17.76,1.56c-6.547-3.817-13.038-10.661-16.92-16.2C61.546,112.9,74.091,108.727,85.715,103.629z"/>
  </g>
</svg>
